<svg version="1.1" id="Layer_1" xmlns="http://www.w3.org/2000/svg" xmlns:xlink="http://www.w3.org/1999/xlink" x="0px" y="0px"
	 width="100%" viewBox="0 0 1024 1024" enable-background="new 0 0 1024 1024" xml:space="preserve">
<path fill="#010100" opacity="1.000000" stroke="none" 
	d="
M542.000000,1025.000000 
	C361.333344,1025.000000 181.166672,1025.000000 1.000000,1025.000000 
	C1.000000,683.666687 1.000000,342.333344 1.000000,1.000000 
	C342.333344,1.000000 683.666687,1.000000 1025.000000,1.000000 
	C1025.000000,342.333344 1025.000000,683.666687 1025.000000,1025.000000 
	C864.166687,1025.000000 703.333313,1025.000000 542.000000,1025.000000 
M715.500305,214.340256 
	C660.172058,214.360306 604.843750,214.371109 549.515503,214.403397 
	C505.851318,214.428864 462.187134,214.507141 418.522949,214.514221 
	C364.527008,214.522980 310.530884,214.396729 256.535217,214.508667 
	C237.108963,214.548935 221.933304,230.266785 221.945663,249.696121 
	C221.974304,294.694885 221.997025,339.693634 221.996185,384.692383 
	C221.994034,500.522675 221.963882,616.352966 222.028671,732.183167 
	C222.030777,735.961426 222.433563,739.892822 223.519043,743.490417 
	C228.110199,758.707153 241.523590,768.054810 258.424805,768.057861 
	C360.422302,768.076233 462.419800,768.069641 564.417297,768.063477 
	C632.415649,768.059326 700.414001,768.065735 768.412354,768.014771 
	C786.581726,768.001160 800.768311,756.911316 803.531372,739.570374 
	C804.828064,731.432617 804.224243,722.967773 804.225037,714.651184 
	C804.240417,560.822388 804.228638,406.993622 804.189941,253.164825 
	C804.183655,228.355865 789.897888,214.290771 764.996765,214.329651 
	C748.831299,214.354904 732.665771,214.336441 715.500305,214.340256 
z"/>
<path fill="#F6F6F7" opacity="1.000000" stroke="none" 
	d="
M716.000244,214.338913 
	C732.665771,214.336441 748.831299,214.354904 764.996765,214.329651 
	C789.897888,214.290771 804.183655,228.355865 804.189941,253.164825 
	C804.228638,406.993622 804.240417,560.822388 804.225037,714.651184 
	C804.224243,722.967773 804.828064,731.432617 803.531372,739.570374 
	C800.768311,756.911316 786.581726,768.001160 768.412354,768.014771 
	C700.414001,768.065735 632.415649,768.059326 564.417297,768.063477 
	C462.419800,768.069641 360.422302,768.076233 258.424805,768.057861 
	C241.523590,768.054810 228.110199,758.707153 223.519043,743.490417 
	C222.433563,739.892822 222.030777,735.961426 222.028671,732.183167 
	C221.963882,616.352966 221.994034,500.522675 221.996185,384.692383 
	C221.997025,339.693634 221.974304,294.694885 221.945663,249.696121 
	C221.933304,230.266785 237.108963,214.548935 256.535217,214.508667 
	C310.530884,214.396729 364.527008,214.522980 418.522949,214.514221 
	C462.187134,214.507141 505.851318,214.428864 549.515503,214.403397 
	C604.843750,214.371109 660.172058,214.360306 716.000244,214.338913 
M794.699951,290.500580 
	C794.661438,277.505371 794.652588,264.509979 794.577087,251.514999 
	C794.476624,234.217041 784.051453,223.939072 766.764771,223.940781 
	C598.124146,223.957474 429.483551,223.970276 260.842926,223.961472 
	C241.747162,223.960464 231.284882,234.427170 231.315414,253.596725 
	C231.361084,282.257996 231.376572,310.919342 231.370102,339.580658 
	C231.340775,469.724457 231.313309,599.868225 231.245407,730.012024 
	C231.236252,747.548645 241.776550,758.378723 259.369995,758.429688 
	C282.031097,758.495361 304.692505,758.457886 327.353790,758.449646 
	C443.499298,758.407471 559.644836,758.360779 675.790344,758.315186 
	C706.618103,758.303101 737.446106,758.356140 768.273499,758.248413 
	C784.213196,758.192749 794.028442,748.411987 794.428162,732.429260 
	C794.598938,725.600098 794.604736,718.765747 794.606567,711.933716 
	C794.644165,571.789368 794.670349,431.645050 794.699951,290.500580 
z"/>
<path fill="#020201" opacity="1.000000" stroke="none" 
	d="
M794.699341,291.000641 
	C794.670349,431.645050 794.644165,571.789368 794.606567,711.933716 
	C794.604736,718.765747 794.598938,725.600098 794.428162,732.429260 
	C794.028442,748.411987 784.213196,758.192749 768.273499,758.248413 
	C737.446106,758.356140 706.618103,758.303101 675.790344,758.315186 
	C559.644836,758.360779 443.499298,758.407471 327.353790,758.449646 
	C304.692505,758.457886 282.031097,758.495361 259.369995,758.429688 
	C241.776550,758.378723 231.236252,747.548645 231.245407,730.012024 
	C231.313309,599.868225 231.340775,469.724457 231.370102,339.580658 
	C231.376572,310.919342 231.361084,282.257996 231.315414,253.596725 
	C231.284882,234.427170 241.747162,223.960464 260.842926,223.961472 
	C429.483551,223.970276 598.124146,223.957474 766.764771,223.940781 
	C784.051453,223.939072 794.476624,234.217041 794.577087,251.514999 
	C794.652588,264.509979 794.661438,277.505371 794.699341,291.000641 
M352.007172,554.489441 
	C359.116760,565.382507 366.226318,576.275513 373.910126,588.048340 
	C386.569214,568.749268 398.577637,550.442139 411.353455,530.965088 
	C411.353455,560.980896 411.353455,589.420471 411.353455,618.081421 
	C425.147095,618.081421 438.708984,618.081421 452.513000,618.081421 
	C452.622345,616.636475 452.781830,615.511536 452.781860,614.386597 
	C452.783203,569.410828 452.778351,524.435059 452.721191,479.459320 
	C452.719391,478.038147 452.448364,476.470886 451.812164,475.221649 
	C448.573883,468.862915 445.173828,462.586578 442.209351,456.996002 
	C433.206329,456.996002 424.747314,457.134491 416.297089,456.922760 
	C413.235535,456.846069 411.541412,457.835144 410.033569,460.513763 
	C401.232574,476.148926 392.271667,491.694580 383.294403,507.229797 
	C380.330109,512.359436 377.156677,517.368225 373.809387,522.875732 
	C372.421082,520.573059 371.379913,518.913757 370.403870,517.217041 
	C359.469910,498.209686 348.566071,479.184967 337.575439,460.210510 
	C336.819702,458.905762 335.452423,457.018555 334.341675,456.999146 
	C321.409973,456.773376 308.472931,456.854645 295.258911,456.854645 
	C295.258911,511.031494 295.258911,564.558411 295.258911,618.097839 
	C309.022430,618.097839 322.450592,618.097839 336.483215,618.097839 
	C336.483215,589.179504 336.483215,560.551941 336.483215,531.924377 
	C336.778931,531.867249 337.074646,531.810059 337.370392,531.752869 
	C342.117310,539.129700 346.864227,546.506531 352.007172,554.489441 
M636.500488,440.289917 
	C630.834534,440.277893 625.167969,440.220093 619.502991,440.288818 
	C618.224121,440.304321 616.170105,440.359955 615.801392,441.078644 
	C613.435730,445.690033 609.642578,450.474792 609.598755,455.232758 
	C609.115784,507.719421 609.234436,560.211609 609.190369,612.702332 
	C609.188904,614.463013 609.190125,616.223694 609.190125,617.881287 
	C650.150269,617.881287 690.360229,617.881287 730.523071,617.881287 
	C730.523071,604.472473 730.523071,591.544861 730.523071,578.061523 
	C704.336487,578.061523 678.441162,578.061523 652.313477,578.061523 
	C652.313477,567.767883 652.313477,558.034302 652.313477,547.926697 
	C674.984802,547.926697 697.417419,547.926697 720.081543,547.926697 
	C720.081543,535.827332 720.081543,524.103455 720.081543,511.893372 
	C697.314270,511.893372 674.910278,511.893372 652.423218,511.893372 
	C652.423218,501.335480 652.423218,491.268982 652.423218,480.759460 
	C678.351013,480.759460 703.944458,480.759460 729.722168,480.759460 
	C729.722168,467.102783 729.722168,453.895111 729.722168,440.288177 
	C698.756165,440.288177 668.128235,440.288177 636.500488,440.289917 
M576.784424,491.290405 
	C585.582092,474.483307 594.379761,457.676239 603.456116,440.336823 
	C588.912109,440.336823 575.406128,440.619507 561.922791,440.190155 
	C556.908752,440.030518 554.753296,441.748596 552.754578,446.167297 
	C543.625916,466.348633 534.066956,486.335297 524.331665,507.097717 
	C523.103088,504.952484 522.217834,503.594421 521.513550,502.148224 
	C513.442627,485.574615 505.202942,469.078094 497.483459,452.341827 
	C495.500000,448.041656 493.186035,447.415314 489.092926,448.250153 
	C481.769836,449.743774 474.366211,450.843689 466.994019,452.095062 
	C461.875671,452.963837 456.753601,453.810577 451.255371,454.730377 
	C466.391113,482.905365 480.909058,510.386078 495.919342,537.595154 
	C500.446655,545.801758 503.260040,553.835815 502.801422,563.438293 
	C502.062744,578.905823 502.423187,594.426025 502.325409,609.923950 
	C502.308838,612.551758 502.323029,615.179688 502.323029,618.002686 
	C517.143250,618.002686 531.375427,618.002686 546.067200,618.002686 
	C546.067200,615.720886 546.066956,613.753906 546.067200,611.786926 
	C546.069946,592.955505 545.973511,574.123108 546.172302,555.293762 
	C546.205811,552.117798 546.904724,548.645752 548.331970,545.836853 
	C557.509583,527.774841 566.975769,509.859436 576.784424,491.290405 
M607.628723,382.088531 
	C643.266052,363.313568 675.989258,340.434845 705.139038,312.170410 
	C709.444336,317.183533 713.408386,321.799377 717.826294,326.943604 
	C723.185120,304.051575 728.350525,281.985901 733.768860,258.839905 
	C711.044006,267.323395 689.482544,275.372589 667.263794,283.667175 
	C672.325684,286.958557 676.982239,289.986359 681.836853,293.142975 
	C665.917908,312.330383 647.775391,328.441315 628.407654,343.118164 
	C594.281128,368.979218 557.067749,389.410095 517.290100,405.293243 
	C458.065186,428.941711 396.293030,439.649536 332.876984,442.169739 
	C324.405853,442.506378 315.909821,442.216003 307.425293,442.216003 
	C307.395813,442.747742 307.366333,443.279480 307.336823,443.811249 
	C308.582062,444.066986 309.825470,444.536346 311.072754,444.546783 
	C334.489380,444.743378 357.944794,445.791565 381.313416,444.802521 
	C408.570343,443.648926 435.589874,439.652802 462.357697,434.049713 
	C512.945557,423.460571 561.301697,406.747223 607.628723,382.088531 
M552.718933,377.277313 
	C558.699951,374.032349 564.651794,370.731628 570.676514,367.569855 
	C573.078308,366.309357 574.191467,364.798065 574.165955,361.835236 
	C574.001343,342.704773 574.085144,323.572266 574.062866,304.440460 
	C574.061157,303.015015 573.867371,301.589752 573.772461,300.295227 
	C556.973938,300.295227 540.613831,300.295227 524.252014,300.295227 
	C524.252014,330.414734 524.252014,360.127136 524.252014,390.769989 
	C533.908752,386.240936 543.007629,381.973480 552.718933,377.277313 
M454.172943,393.499939 
	C454.172943,400.401215 454.172943,407.302460 454.172943,415.360504 
	C471.005463,409.849365 486.773560,404.734009 502.479004,399.433136 
	C503.476868,399.096344 504.621857,397.322968 504.630798,396.209320 
	C504.767365,379.241333 504.725769,362.271912 504.725769,345.102234 
	C487.655884,345.102234 471.136017,345.102234 454.178955,345.102234 
	C454.178955,361.219482 454.178955,376.859772 454.172943,393.499939 
M394.896851,426.362274 
	C404.586945,424.830078 414.331360,423.575348 423.952667,421.691772 
	C434.697479,419.588196 434.625641,419.339813 434.575317,408.249359 
	C434.537201,399.838501 434.567780,391.427338 434.567780,383.121521 
	C417.596375,383.121521 401.378143,383.121521 385.212219,383.121521 
	C385.212219,398.028961 385.212219,412.587036 385.212219,427.392853 
	C388.376434,427.075195 391.183777,426.793365 394.896851,426.362274 
M591.481506,669.534973 
	C590.958557,668.496887 590.538269,667.389893 589.895813,666.431946 
	C586.014038,660.644409 578.692505,658.282898 571.780396,660.530212 
	C565.160889,662.682434 561.325195,668.660522 561.828430,676.040894 
	C562.287842,682.778809 566.801147,687.682922 573.981018,689.245911 
	C585.429199,691.738037 593.474121,683.172180 591.481506,669.534973 
M633.108521,674.502808 
	C633.108521,669.891846 633.108521,665.280884 633.108521,660.541992 
	C630.838013,660.541992 629.134399,660.541992 626.970459,660.541992 
	C626.970459,666.384705 626.970459,671.910583 626.970459,678.191772 
	C622.790771,672.815491 619.036499,668.240356 615.583801,663.447998 
	C613.582642,660.670410 611.435486,659.445496 608.135803,660.914001 
	C608.135803,670.289124 608.135803,679.531555 608.135803,688.935303 
	C610.110291,688.935303 611.836243,688.935303 614.139709,688.935303 
	C614.139709,683.203857 614.139709,677.716003 614.139709,671.176941 
	C618.273743,676.624146 621.979797,680.906189 624.960571,685.644409 
	C626.980225,688.854797 629.158081,689.983582 633.116455,688.697876 
	C633.116455,684.410767 633.116455,679.954468 633.108521,674.502808 
M352.916443,681.493469 
	C352.916443,678.343079 352.916443,675.192688 352.916443,672.042236 
	C357.545593,676.585266 361.179749,681.129700 364.421326,685.938782 
	C366.365753,688.823547 368.504913,689.999634 371.817047,688.727905 
	C371.817047,679.294800 371.817047,669.911987 371.817047,660.435364 
	C369.980194,660.435364 368.521454,660.435364 366.226685,660.435364 
	C366.226685,666.208618 366.226685,671.838196 366.226685,678.418640 
	C361.778870,672.678894 357.952118,668.090454 354.543762,663.209778 
	C352.528656,660.324341 350.378571,659.328308 347.184753,660.592957 
	C347.184753,670.193665 347.184753,679.602112 347.184753,689.005615 
	C349.136810,689.005615 350.755035,689.005615 352.915619,689.005615 
	C352.915619,686.708740 352.915619,684.580383 352.916443,681.493469 
M486.895935,664.891602 
	C481.172638,657.581665 473.421570,660.969177 466.240112,660.191528 
	C466.240112,670.245850 466.240112,679.501282 466.240112,688.860596 
	C468.308044,688.860596 470.163635,688.860596 472.428894,688.860596 
	C472.428894,685.111389 472.428894,681.716980 472.428894,678.211365 
	C477.564636,677.900330 478.253723,682.189270 479.706726,684.866455 
	C481.909149,688.924500 484.598267,690.211365 489.244202,688.663940 
	C486.779663,684.887085 484.379852,681.209412 481.976532,677.526367 
	C487.832062,674.166931 488.747253,672.021606 486.895935,664.891602 
M663.538879,683.920898 
	C661.118713,683.920898 658.698547,683.920898 656.049561,683.920898 
	C656.171936,681.299072 656.254028,679.539124 656.358459,677.301147 
	C660.551758,677.301147 664.331482,677.301147 668.366028,677.301147 
	C668.255249,675.343689 668.173645,673.902283 668.065796,671.996704 
	C664.064819,671.996704 660.307495,671.996704 656.339844,671.996704 
	C656.339844,669.787292 656.339844,668.057922 656.339844,665.724915 
	C660.924500,665.724915 665.343018,665.724915 670.118347,665.724915 
	C670.011719,663.553345 669.935547,662.002197 669.861206,660.488586 
	C663.015015,660.488586 656.619324,660.488586 650.220398,660.488586 
	C650.220398,670.163635 650.220398,679.434265 650.220398,688.960571 
	C656.871765,688.960571 663.282349,688.960571 670.103638,688.960571 
	C670.012634,687.271240 669.930847,685.753967 669.832458,683.927063 
	C667.772827,683.927063 666.129517,683.927063 663.538879,683.920898 
M435.957245,671.368408 
	C435.957245,669.631348 435.957245,667.894226 435.957245,665.647827 
	C440.719910,665.647827 444.964661,665.647827 449.340576,665.647827 
	C449.340576,663.547729 449.340576,661.979431 449.340576,660.375732 
	C442.782410,660.375732 436.538818,660.375732 430.173157,660.375732 
	C430.173157,670.084656 430.173157,679.478943 430.173157,688.870361 
	C436.902985,688.870361 443.309875,688.870361 449.944244,688.870361 
	C449.859192,687.103943 449.790985,685.687378 449.700348,683.804810 
	C444.962616,683.804810 440.533142,683.804810 435.931824,683.804810 
	C435.931824,681.426453 435.931824,679.543335 435.931824,677.126221 
	C440.140045,677.126221 444.033234,677.126221 447.877869,677.126221 
	C447.877869,675.151489 447.877869,673.729126 447.877869,671.925659 
	C444.007996,671.925659 440.368286,671.925659 435.957245,671.368408 
M516.194031,672.206543 
	C514.916565,671.852844 513.445923,671.779114 512.415039,671.067993 
	C511.348328,670.332336 510.708344,668.978027 509.881744,667.894287 
	C511.111633,667.009338 512.236145,665.823547 513.607666,665.342773 
	C514.556641,665.010193 515.859924,665.594910 516.981689,665.865906 
	C520.707092,666.765930 520.703064,666.782593 523.172302,662.919983 
	C519.346497,659.535889 514.829529,659.110596 510.121216,660.099426 
	C506.151428,660.933105 503.618683,663.547058 503.232147,667.602905 
	C502.862488,671.481323 504.737579,674.338440 508.433319,675.776245 
	C510.591034,676.615723 512.963501,677.014771 514.958679,678.119019 
	C516.164307,678.786377 516.832520,680.424622 517.742310,681.626709 
	C516.428406,682.466675 515.084534,684.045227 513.806824,683.993347 
	C511.125275,683.884460 508.478546,682.918396 505.668884,682.270020 
	C504.792053,683.292419 503.844757,684.397034 502.717865,685.710999 
	C507.545776,690.027649 513.027466,691.232727 518.432373,688.523376 
	C520.886353,687.293213 523.176636,683.812073 523.665222,681.023315 
	C524.457642,676.500061 521.091553,673.843872 516.194031,672.206543 
M694.506958,671.146362 
	C693.779541,669.747498 693.052185,668.348694 692.324829,666.949829 
	C694.285583,666.477295 696.581848,665.120544 698.139099,665.711426 
	C701.668335,667.050476 703.992493,666.739746 705.618286,662.989868 
	C701.587219,659.038391 696.678101,659.229370 691.730896,660.379150 
	C688.150574,661.211243 686.031799,663.725525 685.699280,667.453613 
	C685.355225,671.310120 686.718933,674.345825 690.493530,675.848816 
	C692.644470,676.705261 694.998169,677.111267 697.045471,678.145874 
	C698.190369,678.724487 698.895508,680.173218 699.798767,681.229919 
	C698.608582,682.221863 697.414001,684.043640 696.228943,684.037415 
	C693.549561,684.023376 690.874939,683.106995 688.198364,682.557617 
	C688.475830,682.796326 688.753296,683.034973 689.030762,683.273621 
	C687.657288,684.090088 686.283813,684.906555 684.670837,685.865356 
	C689.645081,689.659363 694.588074,690.737793 700.069824,689.045532 
	C703.546387,687.972290 705.758667,685.788879 706.107666,681.982849 
	C706.447937,678.271973 705.085632,675.396790 701.780884,673.730896 
	C699.729309,672.696655 697.443359,672.127380 694.506958,671.146362 
M389.164001,666.401001 
	C391.623199,672.553589 394.285126,678.635437 396.467346,684.884766 
	C397.828247,688.782043 399.926819,690.242798 404.237885,688.673279 
	C407.797913,679.587402 411.463318,670.232605 415.134521,660.862976 
	C410.672394,659.252625 408.397278,660.686035 407.071167,664.834106 
	C405.524323,669.672852 403.426117,674.335388 401.238708,679.911682 
	C399.015045,674.336121 396.755493,669.558228 395.216858,664.558350 
	C393.735382,659.744324 390.848145,659.738586 386.759857,660.837402 
	C387.587097,662.689758 388.250824,664.175964 389.164001,666.401001 
M323.714203,686.703857 
	C324.287292,691.400513 327.312714,688.740662 329.386047,688.976135 
	C329.386047,679.242126 329.386047,669.859680 329.386047,660.359863 
	C327.338898,660.359863 325.716125,660.359863 323.716705,660.359863 
	C323.716705,668.961914 323.716705,677.404114 323.714203,686.703857 
M539.879822,665.679016 
	C539.879822,673.406738 539.879822,681.134399 539.879822,688.980957 
	C542.156311,688.980957 543.892456,688.980957 545.705566,688.980957 
	C545.705566,679.414185 545.705566,670.076782 545.705566,660.490784 
	C543.781067,660.377441 542.187012,660.283508 540.238403,660.168762 
	C540.110474,661.854309 540.001343,663.291321 539.879822,665.679016 
z"/>
<path fill="#FCFCFD" opacity="1.000000" stroke="none" 
	d="
M351.809174,554.186401 
	C346.864227,546.506531 342.117310,539.129700 337.370392,531.752869 
	C337.074646,531.810059 336.778931,531.867249 336.483215,531.924377 
	C336.483215,560.551941 336.483215,589.179504 336.483215,618.097839 
	C322.450592,618.097839 309.022430,618.097839 295.258911,618.097839 
	C295.258911,564.558411 295.258911,511.031494 295.258911,456.854645 
	C308.472931,456.854645 321.409973,456.773376 334.341675,456.999146 
	C335.452423,457.018555 336.819702,458.905762 337.575439,460.210510 
	C348.566071,479.184967 359.469910,498.209686 370.403870,517.217041 
	C371.379913,518.913757 372.421082,520.573059 373.809387,522.875732 
	C377.156677,517.368225 380.330109,512.359436 383.294403,507.229797 
	C392.271667,491.694580 401.232574,476.148926 410.033569,460.513763 
	C411.541412,457.835144 413.235535,456.846069 416.297089,456.922760 
	C424.747314,457.134491 433.206329,456.996002 442.209351,456.996002 
	C445.173828,462.586578 448.573883,468.862915 451.812164,475.221649 
	C452.448364,476.470886 452.719391,478.038147 452.721191,479.459320 
	C452.778351,524.435059 452.783203,569.410828 452.781860,614.386597 
	C452.781830,615.511536 452.622345,616.636475 452.513000,618.081421 
	C438.708984,618.081421 425.147095,618.081421 411.353455,618.081421 
	C411.353455,589.420471 411.353455,560.980896 411.353455,530.965088 
	C398.577637,550.442139 386.569214,568.749268 373.910126,588.048340 
	C366.226318,576.275513 359.116760,565.382507 351.809174,554.186401 
z"/>
<path fill="#FCFCFC" opacity="1.000000" stroke="none" 
	d="
M637.000427,440.289062 
	C668.128235,440.288177 698.756165,440.288177 729.722168,440.288177 
	C729.722168,453.895111 729.722168,467.102783 729.722168,480.759460 
	C703.944458,480.759460 678.351013,480.759460 652.423218,480.759460 
	C652.423218,491.268982 652.423218,501.335480 652.423218,511.893372 
	C674.910278,511.893372 697.314270,511.893372 720.081543,511.893372 
	C720.081543,524.103455 720.081543,535.827332 720.081543,547.926697 
	C697.417419,547.926697 674.984802,547.926697 652.313477,547.926697 
	C652.313477,558.034302 652.313477,567.767883 652.313477,578.061523 
	C678.441162,578.061523 704.336487,578.061523 730.523071,578.061523 
	C730.523071,591.544861 730.523071,604.472473 730.523071,617.881287 
	C690.360229,617.881287 650.150269,617.881287 609.190125,617.881287 
	C609.190125,616.223694 609.188904,614.463013 609.190369,612.702332 
	C609.234436,560.211609 609.115784,507.719421 609.598755,455.232758 
	C609.642578,450.474792 613.435730,445.690033 615.801392,441.078644 
	C616.170105,440.359955 618.224121,440.304321 619.502991,440.288818 
	C625.167969,440.220093 630.834534,440.277893 637.000427,440.289062 
z"/>
<path fill="#FCFCFD" opacity="1.000000" stroke="none" 
	d="
M576.565796,491.593140 
	C566.975769,509.859436 557.509583,527.774841 548.331970,545.836853 
	C546.904724,548.645752 546.205811,552.117798 546.172302,555.293762 
	C545.973511,574.123108 546.069946,592.955505 546.067200,611.786926 
	C546.066956,613.753906 546.067200,615.720886 546.067200,618.002686 
	C531.375427,618.002686 517.143250,618.002686 502.323029,618.002686 
	C502.323029,615.179688 502.308838,612.551758 502.325409,609.923950 
	C502.423187,594.426025 502.062744,578.905823 502.801422,563.438293 
	C503.260040,553.835815 500.446655,545.801758 495.919342,537.595154 
	C480.909058,510.386078 466.391113,482.905365 451.255371,454.730377 
	C456.753601,453.810577 461.875671,452.963837 466.994019,452.095062 
	C474.366211,450.843689 481.769836,449.743774 489.092926,448.250153 
	C493.186035,447.415314 495.500000,448.041656 497.483459,452.341827 
	C505.202942,469.078094 513.442627,485.574615 521.513550,502.148224 
	C522.217834,503.594421 523.103088,504.952484 524.331665,507.097717 
	C534.066956,486.335297 543.625916,466.348633 552.754578,446.167297 
	C554.753296,441.748596 556.908752,440.030518 561.922791,440.190155 
	C575.406128,440.619507 588.912109,440.336823 603.456116,440.336823 
	C594.379761,457.676239 585.582092,474.483307 576.565796,491.593140 
z"/>
<path fill="#FAFAFA" opacity="1.000000" stroke="none" 
	d="
M607.291565,382.245422 
	C561.301697,406.747223 512.945557,423.460571 462.357697,434.049713 
	C435.589874,439.652802 408.570343,443.648926 381.313416,444.802521 
	C357.944794,445.791565 334.489380,444.743378 311.072754,444.546783 
	C309.825470,444.536346 308.582062,444.066986 307.336823,443.811249 
	C307.366333,443.279480 307.395813,442.747742 307.425293,442.216003 
	C315.909821,442.216003 324.405853,442.506378 332.876984,442.169739 
	C396.293030,439.649536 458.065186,428.941711 517.290100,405.293243 
	C557.067749,389.410095 594.281128,368.979218 628.407654,343.118164 
	C647.775391,328.441315 665.917908,312.330383 681.836853,293.142975 
	C676.982239,289.986359 672.325684,286.958557 667.263794,283.667175 
	C689.482544,275.372589 711.044006,267.323395 733.768860,258.839905 
	C728.350525,281.985901 723.185120,304.051575 717.826294,326.943604 
	C713.408386,321.799377 709.444336,317.183533 705.139038,312.170410 
	C675.989258,340.434845 643.266052,363.313568 607.291565,382.245422 
z"/>
<path fill="#FDFDFD" opacity="1.000000" stroke="none" 
	d="
M552.412720,377.491699 
	C543.007629,381.973480 533.908752,386.240936 524.252014,390.769989 
	C524.252014,360.127136 524.252014,330.414734 524.252014,300.295227 
	C540.613831,300.295227 556.973938,300.295227 573.772461,300.295227 
	C573.867371,301.589752 574.061157,303.015015 574.062866,304.440460 
	C574.085144,323.572266 574.001343,342.704773 574.165955,361.835236 
	C574.191467,364.798065 573.078308,366.309357 570.676514,367.569855 
	C564.651794,370.731628 558.699951,374.032349 552.412720,377.491699 
z"/>
<path fill="#FAFAFB" opacity="1.000000" stroke="none" 
	d="
M454.175964,393.000000 
	C454.178955,376.859772 454.178955,361.219482 454.178955,345.102234 
	C471.136017,345.102234 487.655884,345.102234 504.725769,345.102234 
	C504.725769,362.271912 504.767365,379.241333 504.630798,396.209320 
	C504.621857,397.322968 503.476868,399.096344 502.479004,399.433136 
	C486.773560,404.734009 471.005463,409.849365 454.172943,415.360504 
	C454.172943,407.302460 454.172943,400.401215 454.175964,393.000000 
z"/>
<path fill="#FBFBFC" opacity="1.000000" stroke="none" 
	d="
M394.443970,426.436890 
	C391.183777,426.793365 388.376434,427.075195 385.212219,427.392853 
	C385.212219,412.587036 385.212219,398.028961 385.212219,383.121521 
	C401.378143,383.121521 417.596375,383.121521 434.567780,383.121521 
	C434.567780,391.427338 434.537201,399.838501 434.575317,408.249359 
	C434.625641,419.339813 434.697479,419.588196 423.952667,421.691772 
	C414.331360,423.575348 404.586945,424.830078 394.443970,426.436890 
z"/>
<path fill="#F3F3F3" opacity="1.000000" stroke="none" 
	d="
M591.624146,669.921753 
	C593.474121,683.172180 585.429199,691.738037 573.981018,689.245911 
	C566.801147,687.682922 562.287842,682.778809 561.828430,676.040894 
	C561.325195,668.660522 565.160889,662.682434 571.780396,660.530212 
	C578.692505,658.282898 586.014038,660.644409 589.895813,666.431946 
	C590.538269,667.389893 590.958557,668.496887 591.624146,669.921753 
M576.617126,683.942261 
	C582.942017,682.922791 586.136230,680.049255 586.003845,674.991760 
	C585.891113,670.688354 584.191284,667.218567 579.559753,666.009888 
	C574.300171,664.637390 570.302124,666.829773 568.706726,671.958801 
	C566.897949,677.773376 569.132324,681.512268 576.617126,683.942261 
z"/>
<path fill="#F3F3F3" opacity="1.000000" stroke="none" 
	d="
M633.112488,675.000488 
	C633.116455,679.954468 633.116455,684.410767 633.116455,688.697876 
	C629.158081,689.983582 626.980225,688.854797 624.960571,685.644409 
	C621.979797,680.906189 618.273743,676.624146 614.139709,671.176941 
	C614.139709,677.716003 614.139709,683.203857 614.139709,688.935303 
	C611.836243,688.935303 610.110291,688.935303 608.135803,688.935303 
	C608.135803,679.531555 608.135803,670.289124 608.135803,660.914001 
	C611.435486,659.445496 613.582642,660.670410 615.583801,663.447998 
	C619.036499,668.240356 622.790771,672.815491 626.970459,678.191772 
	C626.970459,671.910583 626.970459,666.384705 626.970459,660.541992 
	C629.134399,660.541992 630.838013,660.541992 633.108521,660.541992 
	C633.108521,665.280884 633.108521,669.891846 633.112488,675.000488 
z"/>
<path fill="#F3F3F3" opacity="1.000000" stroke="none" 
	d="
M352.916016,681.972717 
	C352.915619,684.580383 352.915619,686.708740 352.915619,689.005615 
	C350.755035,689.005615 349.136810,689.005615 347.184753,689.005615 
	C347.184753,679.602112 347.184753,670.193665 347.184753,660.592957 
	C350.378571,659.328308 352.528656,660.324341 354.543762,663.209778 
	C357.952118,668.090454 361.778870,672.678894 366.226685,678.418640 
	C366.226685,671.838196 366.226685,666.208618 366.226685,660.435364 
	C368.521454,660.435364 369.980194,660.435364 371.817047,660.435364 
	C371.817047,669.911987 371.817047,679.294800 371.817047,688.727905 
	C368.504913,689.999634 366.365753,688.823547 364.421326,685.938782 
	C361.179749,681.129700 357.545593,676.585266 352.916443,672.042236 
	C352.916443,675.192688 352.916443,678.343079 352.916016,681.972717 
z"/>
<path fill="#F2F2F2" opacity="1.000000" stroke="none" 
	d="
M487.049347,665.254639 
	C488.747253,672.021606 487.832062,674.166931 481.976532,677.526367 
	C484.379852,681.209412 486.779663,684.887085 489.244202,688.663940 
	C484.598267,690.211365 481.909149,688.924500 479.706726,684.866455 
	C478.253723,682.189270 477.564636,677.900330 472.428894,678.211365 
	C472.428894,681.716980 472.428894,685.111389 472.428894,688.860596 
	C470.163635,688.860596 468.308044,688.860596 466.240112,688.860596 
	C466.240112,679.501282 466.240112,670.245850 466.240112,660.191528 
	C473.421570,660.969177 481.172638,657.581665 487.049347,665.254639 
M472.086304,668.544556 
	C472.157288,669.964172 472.228271,671.383850 472.386658,674.551025 
	C476.074066,672.831543 478.901489,671.569763 481.594086,670.066528 
	C481.711517,670.000916 480.819092,666.841858 480.006226,666.631165 
	C477.372955,665.948303 474.255951,663.900024 472.086304,668.544556 
z"/>
<path fill="#F2F2F2" opacity="1.000000" stroke="none" 
	d="
M664.012573,683.923950 
	C666.129517,683.927063 667.772827,683.927063 669.832458,683.927063 
	C669.930847,685.753967 670.012634,687.271240 670.103638,688.960571 
	C663.282349,688.960571 656.871765,688.960571 650.220398,688.960571 
	C650.220398,679.434265 650.220398,670.163635 650.220398,660.488586 
	C656.619324,660.488586 663.015015,660.488586 669.861206,660.488586 
	C669.935547,662.002197 670.011719,663.553345 670.118347,665.724915 
	C665.343018,665.724915 660.924500,665.724915 656.339844,665.724915 
	C656.339844,668.057922 656.339844,669.787292 656.339844,671.996704 
	C660.307495,671.996704 664.064819,671.996704 668.065796,671.996704 
	C668.173645,673.902283 668.255249,675.343689 668.366028,677.301147 
	C664.331482,677.301147 660.551758,677.301147 656.358459,677.301147 
	C656.254028,679.539124 656.171936,681.299072 656.049561,683.920898 
	C658.698547,683.920898 661.118713,683.920898 664.012573,683.923950 
z"/>
<path fill="#F3F3F3" opacity="1.000000" stroke="none" 
	d="
M436.342926,671.647034 
	C440.368286,671.925659 444.007996,671.925659 447.877869,671.925659 
	C447.877869,673.729126 447.877869,675.151489 447.877869,677.126221 
	C444.033234,677.126221 440.140045,677.126221 435.931824,677.126221 
	C435.931824,679.543335 435.931824,681.426453 435.931824,683.804810 
	C440.533142,683.804810 444.962616,683.804810 449.700348,683.804810 
	C449.790985,685.687378 449.859192,687.103943 449.944244,688.870361 
	C443.309875,688.870361 436.902985,688.870361 430.173157,688.870361 
	C430.173157,679.478943 430.173157,670.084656 430.173157,660.375732 
	C436.538818,660.375732 442.782410,660.375732 449.340576,660.375732 
	C449.340576,661.979431 449.340576,663.547729 449.340576,665.647827 
	C444.964661,665.647827 440.719910,665.647827 435.957245,665.647827 
	C435.957245,667.894226 435.957245,669.631348 436.342926,671.647034 
z"/>
<path fill="#F0F0F0" opacity="1.000000" stroke="none" 
	d="
M516.549805,672.356079 
	C521.091553,673.843872 524.457642,676.500061 523.665222,681.023315 
	C523.176636,683.812073 520.886353,687.293213 518.432373,688.523376 
	C513.027466,691.232727 507.545776,690.027649 502.717865,685.710999 
	C503.844757,684.397034 504.792053,683.292419 505.668884,682.270020 
	C508.478546,682.918396 511.125275,683.884460 513.806824,683.993347 
	C515.084534,684.045227 516.428406,682.466675 517.742310,681.626709 
	C516.832520,680.424622 516.164307,678.786377 514.958679,678.119019 
	C512.963501,677.014771 510.591034,676.615723 508.433319,675.776245 
	C504.737579,674.338440 502.862488,671.481323 503.232147,667.602905 
	C503.618683,663.547058 506.151428,660.933105 510.121216,660.099426 
	C514.829529,659.110596 519.346497,659.535889 523.172302,662.919983 
	C520.703064,666.782593 520.707092,666.765930 516.981689,665.865906 
	C515.859924,665.594910 514.556641,665.010193 513.607666,665.342773 
	C512.236145,665.823547 511.111633,667.009338 509.881744,667.894287 
	C510.708344,668.978027 511.348328,670.332336 512.415039,671.067993 
	C513.445923,671.779114 514.916565,671.852844 516.549805,672.356079 
z"/>
<path fill="#F1F1F1" opacity="1.000000" stroke="none" 
	d="
M694.884766,671.247925 
	C697.443359,672.127380 699.729309,672.696655 701.780884,673.730896 
	C705.085632,675.396790 706.447937,678.271973 706.107666,681.982849 
	C705.758667,685.788879 703.546387,687.972290 700.069824,689.045532 
	C694.588074,690.737793 689.645081,689.659363 684.670837,685.865356 
	C686.283813,684.906555 687.657288,684.090088 689.030762,683.273621 
	C688.753296,683.034973 688.475830,682.796326 688.198364,682.557617 
	C690.874939,683.106995 693.549561,684.023376 696.228943,684.037415 
	C697.414001,684.043640 698.608582,682.221863 699.798767,681.229919 
	C698.895508,680.173218 698.190369,678.724487 697.045471,678.145874 
	C694.998169,677.111267 692.644470,676.705261 690.493530,675.848816 
	C686.718933,674.345825 685.355225,671.310120 685.699280,667.453613 
	C686.031799,663.725525 688.150574,661.211243 691.730896,660.379150 
	C696.678101,659.229370 701.587219,659.038391 705.618286,662.989868 
	C703.992493,666.739746 701.668335,667.050476 698.139099,665.711426 
	C696.581848,665.120544 694.285583,666.477295 692.324829,666.949829 
	C693.052185,668.348694 693.779541,669.747498 694.884766,671.247925 
z"/>
<path fill="#F0F0F0" opacity="1.000000" stroke="none" 
	d="
M389.039276,666.031616 
	C388.250824,664.175964 387.587097,662.689758 386.759857,660.837402 
	C390.848145,659.738586 393.735382,659.744324 395.216858,664.558350 
	C396.755493,669.558228 399.015045,674.336121 401.238708,679.911682 
	C403.426117,674.335388 405.524323,669.672852 407.071167,664.834106 
	C408.397278,660.686035 410.672394,659.252625 415.134521,660.862976 
	C411.463318,670.232605 407.797913,679.587402 404.237885,688.673279 
	C399.926819,690.242798 397.828247,688.782043 396.467346,684.884766 
	C394.285126,678.635437 391.623199,672.553589 389.039276,666.031616 
z"/>
<path fill="#ECEDEC" opacity="1.000000" stroke="none" 
	d="
M323.715454,686.275024 
	C323.716705,677.404114 323.716705,668.961914 323.716705,660.359863 
	C325.716125,660.359863 327.338898,660.359863 329.386047,660.359863 
	C329.386047,669.859680 329.386047,679.242126 329.386047,688.976135 
	C327.312714,688.740662 324.287292,691.400513 323.715454,686.275024 
z"/>
<path fill="#F3F3F3" opacity="1.000000" stroke="none" 
	d="
M539.886047,665.203613 
	C540.001343,663.291321 540.110474,661.854309 540.238403,660.168762 
	C542.187012,660.283508 543.781067,660.377441 545.705566,660.490784 
	C545.705566,670.076782 545.705566,679.414185 545.705566,688.980957 
	C543.892456,688.980957 542.156311,688.980957 539.879822,688.980957 
	C539.879822,681.134399 539.879822,673.406738 539.886047,665.203613 
z"/>
<path fill="#090808" opacity="1.000000" stroke="none" 
	d="
M576.225098,683.913147 
	C569.132324,681.512268 566.897949,677.773376 568.706726,671.958801 
	C570.302124,666.829773 574.300171,664.637390 579.559753,666.009888 
	C584.191284,667.218567 585.891113,670.688354 586.003845,674.991760 
	C586.136230,680.049255 582.942017,682.922791 576.225098,683.913147 
z"/>
<path fill="#090808" opacity="1.000000" stroke="none" 
	d="
M472.088440,668.086914 
	C474.255951,663.900024 477.372955,665.948303 480.006226,666.631165 
	C480.819092,666.841858 481.711517,670.000916 481.594086,670.066528 
	C478.901489,671.569763 476.074066,672.831543 472.386658,674.551025 
	C472.228271,671.383850 472.157288,669.964172 472.088440,668.086914 
z"/>
</svg>